<svg id="Layer_1" data-name="Layer 1" xmlns="http://www.w3.org/2000/svg" viewBox="0 0 128 128"><defs><style>.cls-1{fill:#1d75b8;}.cls-2{fill:#2d3e50;}</style></defs><title>b</title><path class="cls-1" d="M65.415,88.24912a8.2051,8.2051,0,1,0,1.67855,11.56161A8.29092,8.29092,0,0,0,65.415,88.24912Zm-1.63626,9.07907a4.20269,4.20269,0,1,1-.87442-5.80511A4.17389,4.17389,0,0,1,63.77878,97.32818Z" id="id_101" style="fill: rgb(235, 214, 90);"></path><path class="cls-1" d="M59.43995,61.53678c1.34508-.15894,2.68664-.34757,4.29607-.5582.1365,1.39191.23079,2.69351.4,3.9853a2.10125,2.10125,0,0,0,2.34588,2.01888c1.2594-.16623,1.91579-1.18641,1.733-2.63927-.15862-1.26094-.283-2.52619-.421-3.77614,1.20957-.19236,2.492-.40018,3.77573-.59942a2.0739,2.0739,0,1,0-.56586-4.08367c-1.29049.19265-2.56827.4705-3.85162.71087l-.43535-.25962c-.12434-1.4152-.18408-2.84-.39295-4.24266A1.99289,1.99289,0,0,0,63.96589,50.424a2.02108,2.02108,0,0,0-1.69249,2.2721c.034.40428.1143.80462.17261,1.2069.14371.99154.28693,1.98314.4245,2.93432-1.44444.21962-2.7653.40743-4.08141.62406A2.03171,2.03171,0,0,0,57.066,60.20646,2.10276,2.10276,0,0,0,59.43995,61.53678Z" id="id_102" style="fill: rgb(235, 214, 90);"></path><path class="cls-1" d="M93.93672,70.43715a2.091,2.091,0,0,0-1.13788-1.12594L81.99353,64.90249a2.09157,2.09157,0,1,0-1.58028,3.87317l5.93016,2.41961c-.03626.01705-.0729.03259-.10857.05192C77.443,76.0114,69.5911,74.89768,59.65021,73.48764q-.68076-.09666-1.37034-.1938c-10.92736-1.53551-19.4581,1.3983-24.02064,8.26094a2.09151,2.09151,0,1,0,3.48342,2.31589c4.88766-7.35141,14.60051-7.18678,19.95527-6.43434q.68686.09649,1.36475.193C69.34353,79.0876,78.22233,80.347,88.228,74.92515l.02828-.01722-2.5929,6.35485a2.09166,2.09166,0,1,0,3.87333,1.58032L93.94536,72.038A2.09122,2.09122,0,0,0,93.93672,70.43715Zm-4.74753,1.91924.09271.03783-.04319.10586C89.22455,72.45178,89.207,72.40407,89.18918,72.35639Z" id="id_103" style="fill: rgb(235, 214, 90);"></path><path class="cls-2" d="M12.30483,10.71731V117.28517A8.23055,8.23055,0,0,0,20.525,125.5078h86.94509a8.23319,8.23319,0,0,0,8.22511-8.22263V32.55881a4.53291,4.53291,0,0,0-1.33973-3.23226L88.86088,3.83193A4.54186,4.54186,0,0,0,85.62857,2.4922H20.525A8.2327,8.2327,0,0,0,12.30483,10.71731Zm9.144,77.48737V11.63623H81.05658V28.90817a8.23107,8.23107,0,0,0,8.22263,8.22263h17.272V116.3663H21.4488V88.20468Z" id="id_104" style="fill: rgb(235, 214, 90);"></path></svg>